<svg  xmlns="http://www.w3.org/2000/svg" viewBox="0 0 50 50"><defs><style>.cls-1{fill:#bcc0c4;}.cls-2{fill:#e9eaeb;}.cls-3{fill:#2a5082;}.cls-4{fill:#fff;}.cls-5{fill:#a3d4ff;}</style></defs><path class="cls-1" d="M41.4,24.75H39.75V23.51L35.87,18.8V17h1.65v1.24l3.88,4.71Zm-7.76,0H32v-1.4l-1.57-4.71V17h1.66v1.41l1.57,4.71Zm-15.71,0H16.28V22.93l4-4.71V17H21.9V18.8l-4,4.71Zm7.86,0H24.13V23.1l1.57-4.71V17h1.66v1.66l-1.57,4.71ZM25.7,6.82H19.83l-.24-.42a2.07,2.07,0,0,0-1.74-1.15,2,2,0,0,0-.66.16l-.74.33-.33-.82A3.46,3.46,0,0,0,12.89,2.6C11,2.6,9.42,4.83,9.42,6v.83H2.31V5.17H7.93C8.43,3.26,10.5,1,13,1a5.19,5.19,0,0,1,4.46,2.73,3.43,3.43,0,0,1,3.39,1.57h5V6.82ZM0,12.19H8.6v1.65H0ZM49.17,6.82H45.45l-.16-.58A1.71,1.71,0,0,0,43.14,5l-.58.08-.25-.49a2.58,2.58,0,0,0-2.14-1.16A2.34,2.34,0,0,0,37.6,6v.83H32.81V5.17H36a3.92,3.92,0,0,1,4.14-3.39,4.11,4.11,0,0,1,3.3,1.57,3.19,3.19,0,0,1,3.14,1.82h2.56V6.82Z"/><path class="cls-2" d="M17.11,11.53H40.58V17H17.11Z"/><path class="cls-2" d="M9.34,24.75v4.71a4.05,4.05,0,0,0,3.88,3.89,4.11,4.11,0,0,0,3.89-3.89A4.05,4.05,0,0,0,21,33.35a4.11,4.11,0,0,0,3.89-3.89,4.05,4.05,0,0,0,3.88,3.89,4.11,4.11,0,0,0,3.88-3.89,4.06,4.06,0,0,0,3.89,3.89,4.11,4.11,0,0,0,3.88-3.89,4.05,4.05,0,0,0,3.89,3.89,4.11,4.11,0,0,0,3.88-3.89V24.75Z"/><path class="cls-2" d="M33.55,37.23H41.4V48.14H33.55Z"/><rect class="cls-3" x="3.06" y="47.4" width="3.14" height="1.65"/><path class="cls-3" d="M41.4,16.59V10.7H16.28v5.9L8.51,22.52v6.94a4.87,4.87,0,0,0,4.71,4.71A5,5,0,0,0,17.11,32a5.25,5.25,0,0,0,4.05,2.15A4.93,4.93,0,0,0,25,32a4.83,4.83,0,0,0,3.89,2.15A4.93,4.93,0,0,0,32.81,32a4.81,4.81,0,0,0,3.88,2.15A5,5,0,0,0,40.58,32a4.8,4.8,0,0,0,3.88,2.15V47.4H42.23V36.49h-9.5V47.4h-25v1.65H47.6V47.4H46.12V33.83a4.93,4.93,0,0,0,3.14-4.37V22.52ZM40.58,47.4h-6.2V38.14h6.2Zm-22.65-35H39.75v3.8H17.93Zm29.59,17.1a3.06,3.06,0,0,1-6.12,0V27.89H39.75v1.57a3.38,3.38,0,0,1-3.22,3.06,3.23,3.23,0,0,1-3.06-3.06h.17V27.89H32v1.57h-.16a3.23,3.23,0,0,1-3.06,3.06,3.23,3.23,0,0,1-3.06-3.06h.09V27.89H24.13v1.57h-.08A3.23,3.23,0,0,1,21,32.52a3.23,3.23,0,0,1-3.06-3.06V27.89H16.28v1.57a3.23,3.23,0,0,1-3.06,3.06,3.22,3.22,0,0,1-3.05-3.06V25.58H47.52ZM10.17,23.93v-.58l7.27-5.54H40.33l7.27,5.54v.58Z"/><path class="cls-4" d="M21.07,37.23h9.34v7H21.07Z"/><path class="cls-3" d="M31.24,45.17h-11V36.49h11v8.68ZM21.9,43.51h7.69V38.14H21.9Z"/><path class="cls-1" d="M10.08,12.19h1.57v1.65H10.08Zm17.19-7h1.57V6.82H27.27Z"/><path class="cls-3" d="M48.43,47.4H50v1.65H48.43Z"/><path class="cls-5" d="M11.49,48.22c.33-9,8.92-11.24,8.92-18.59a9.52,9.52,0,1,0-19,.66c.67,6.86,8.77,9.17,9.1,17.93Z"/><path class="cls-3" d="M12.31,49.05H9.67v-.83C9.5,43.84,7.19,41.12,5,38.55c-2-2.31-4-4.71-4.3-8.18a10.43,10.43,0,0,1,8.93-11,10.5,10.5,0,0,1,8.18,2.48,10.33,10.33,0,0,1,3.47,7.77c0,3.88-2.15,6.44-4.3,8.92-2.23,2.65-4.46,5.29-4.62,9.67ZM11,21A5.71,5.71,0,0,0,9.83,21a8.76,8.76,0,0,0-7.52,9.18c.25,2.89,2,5,3.89,7.27s4,4.71,4.79,8.26c.75-3.55,2.89-6,4.8-8.26,2.06-2.48,3.88-4.63,3.88-7.85a8.87,8.87,0,0,0-2.89-6.53A8.8,8.8,0,0,0,11,21Z"/><path class="cls-4" d="M7.77,29.46a3.14,3.14,0,1,0,3.14-3.14A3.13,3.13,0,0,0,7.77,29.46Z"/><path class="cls-3" d="M10.91,33.43a4,4,0,0,1-4-4,3.91,3.91,0,0,1,4-4,3.91,3.91,0,0,1,4,4A4,4,0,0,1,10.91,33.43Zm0-6.28A2.36,2.36,0,0,0,8.6,29.46a2.31,2.31,0,1,0,4.62,0A2.36,2.36,0,0,0,10.91,27.15ZM0,47.4H1.57v1.65H0Z"/></svg>