<svg  xmlns="http://www.w3.org/2000/svg" viewBox="0 0 50 50"><defs><style>.cls-1{fill:#fff;}.cls-2{fill:#2a5082;}.cls-3{fill:#a3d4ff;}.cls-4{fill:#bcc0c4;}</style></defs><path class="cls-1" d="M46.87,7h-25a2.29,2.29,0,0,0-2.34,2.34V25a2.29,2.29,0,0,0,2.34,2.34h25A2.29,2.29,0,0,0,49.21,25V9.37A2.29,2.29,0,0,0,46.87,7Z"/><path class="cls-2" d="M46.87,28.13h-25A3.14,3.14,0,0,1,18.73,25V18h1.55v7a1.56,1.56,0,0,0,1.56,1.55h25A1.56,1.56,0,0,0,48.39,25V9.37a1.55,1.55,0,0,0-1.55-1.55h-25a1.55,1.55,0,0,0-1.56,1.55v6.26H18.73V9.37a3.15,3.15,0,0,1,3.14-3.14h25A3.14,3.14,0,0,1,50,9.37V25a3.13,3.13,0,0,1-3.13,3.13Z"/><path class="cls-2" d="M34.37,19.53a5.08,5.08,0,0,1-3.29-1.18L21.33,10l1-1.17,9.78,8.35a3.4,3.4,0,0,0,4.46,0l9.78-8.35,1,1.17-9.71,8.35A5.08,5.08,0,0,1,34.37,19.53Z"/><path class="cls-2" d="M37.72,16.93l1.11-1.11,8.61,8.61-1.11,1.11ZM26,19.75l3.9-3.93L31,16.93l-3.92,3.92Z"/><path class="cls-3" d="M28.13,22.66h-25A2.29,2.29,0,0,0,.79,25V40.63A2.29,2.29,0,0,0,3.13,43h25a2.29,2.29,0,0,0,2.34-2.34V25A2.29,2.29,0,0,0,28.13,22.66Z"/><path class="cls-2" d="M29.72,40.63a1.55,1.55,0,0,1-1.56,1.55h-25a1.55,1.55,0,0,1-1.55-1.55V25a1.56,1.56,0,0,1,1.55-1.55h25A1.56,1.56,0,0,1,29.72,25v7.82H27.34v1.55h9.37V32.82H31.27V25a3.14,3.14,0,0,0-3.14-3.13h-25A3.13,3.13,0,0,0,0,25V40.63a3.14,3.14,0,0,0,3.13,3.14h25a3.17,3.17,0,0,0,3.14-3.14V36H29.72Z"/><path class="cls-2" d="M3.7,41.2l7.87-7.87.77.66a5.12,5.12,0,0,0,3.29,1.17,4.83,4.83,0,0,0,3.29-1.24l.73-.66,7.91,7.91,1.11-1.11L20.8,32.19l7.11-6.56L26.8,24.46l-9,8.36a3.44,3.44,0,0,1-4.47,0L3.58,24.46l-1,1.17,7.82,6.68L2.59,40.13Z"/><rect class="cls-2" x="13.29" y="14.84" width="9.37" height="1.55"/><rect class="cls-2" x="10.16" y="14.84" width="1.55" height="1.55"/><rect class="cls-2" x="4.68" y="6.23" width="1.55" height="1.55"/><rect class="cls-2" x="7.82" y="6.23" width="8.61" height="1.55"/><rect class="cls-2" x="43.77" y="42.18" width="1.55" height="1.55"/><rect class="cls-2" x="1.55" y="6.23" width="1.55" height="1.55"/><rect class="cls-2" x="33.61" y="42.18" width="8.61" height="1.55"/><rect class="cls-2" x="46.87" y="42.18" width="1.55" height="1.55"/><path class="cls-4" d="M15.63,47.66H37.5v1.55H15.63Zm23.42,0H40.6v1.55H39.05Zm3.13,0h1.55v1.55H42.18ZM14.84.79H36.71V2.34H14.84Zm-3.13,0h1.58V2.34H11.71ZM8.58.79h1.55V2.34H8.58Z"/><path class="cls-2" d="M37.5,32.82h1.55v1.55H37.5Z"/></svg>