<svg id="图层_1" data-name="图层 1" xmlns="http://www.w3.org/2000/svg" viewBox="0 0 50 50"><defs><style>.cls-1{fill:#2a5082;}.cls-2{fill:#a3d4ff;}.cls-3{fill:#bcc0c4;}.cls-4{fill:#fff;}</style></defs><title>phone_1</title><path class="cls-1" d="M36.39,20.62H38l3-4.54h6v1.51H41.84l-3.1,4.54H36.39ZM47,25.91H33.37V24.4H47Z"/><path class="cls-2" d="M49.24,16.84a2.27,2.27,0,1,0-4.53,0h0a2.27,2.27,0,0,0,4.53,0Z"/><path class="cls-1" d="M44,16.84a3,3,0,1,1,3,3A3,3,0,0,1,44,16.84Zm1.51,0A1.52,1.52,0,1,0,47,15.32,1.52,1.52,0,0,0,45.46,16.84Zm-7.4,12.85H33.37V28.17h5.44l3,4.54H47v1.51H41Z"/><path class="cls-2" d="M49.24,33.47a2.27,2.27,0,1,0-4.53,0h0a2.27,2.27,0,0,0,4.53,0Z"/><path class="cls-1" d="M44,33.47a3,3,0,1,1,3,3A3,3,0,0,1,44,33.47Zm1.51,0A1.52,1.52,0,1,0,47,32,1.52,1.52,0,0,0,45.46,33.47Z"/><path class="cls-2" d="M49.24,25.15a2.27,2.27,0,1,0-4.53,0h0a2.27,2.27,0,1,0,4.53,0Z"/><path class="cls-1" d="M44,25.15a3,3,0,1,1,3,3A3,3,0,0,1,44,25.15Zm1.51,0A1.52,1.52,0,1,0,47,23.64,1.52,1.52,0,0,0,45.46,25.15ZM34.2,33.47H28.83V32H35l5.45,7.87-1.21.83Z"/><path class="cls-2" d="M42.44,40.27a2.27,2.27,0,1,0-2.27,2.27,2.27,2.27,0,0,0,2.27-2.27Z"/><path class="cls-1" d="M37.15,40.27a3,3,0,1,1,3,3A3,3,0,0,1,37.15,40.27Zm1.51,0a1.52,1.52,0,1,0,1.51-1.51A1.52,1.52,0,0,0,38.66,40.27ZM28.83,16.84h5.45L39.34,11l1.14,1L35,18.35H28.83Z"/><path class="cls-2" d="M42.44,11.54a2.27,2.27,0,1,0-2.27,2.27,2.26,2.26,0,0,0,2.27-2.27Z"/><path class="cls-1" d="M37.15,11.55a3,3,0,1,1,3,3A3,3,0,0,1,37.15,11.55Zm1.51,0A1.52,1.52,0,1,0,40.17,10,1.52,1.52,0,0,0,38.66,11.55ZM33.37,25.91H28.83V24.4h4.54Z"/><path class="cls-1" d="M24.3,25.91H22.79V24.4H24.3Zm3,0H25.81V24.4h1.51Zm0-7.56H25.81V16.84h1.51Zm0,15.12H25.81V32h1.51Z"/><path class="cls-3" d="M21.28,43a18.26,18.26,0,0,0,12.09-4.61l1,1.13a19.48,19.48,0,0,1-13.07,5ZM17.65,5.5,18,7A18.15,18.15,0,0,0,3.13,24.85H1.62A19.74,19.74,0,0,1,17.65,5.5ZM11.3,42.16A20.36,20.36,0,0,1,2.61,32L4,31.5a18.7,18.7,0,0,0,8,9.37l-.75,1.29Z"/><path class="cls-3" d="M5.55,25.38A16.27,16.27,0,0,1,32.84,13.43l-1.06,1.14a14.43,14.43,0,0,0-10-3.93,14.75,14.75,0,0,0-5.14,28.57l-.53,1.44A16.4,16.4,0,0,1,5.55,25.38Z"/><path class="cls-1" d="M34.88,22.13H33.37V20.62h1.51Z"/><rect class="cls-4" x="14.29" y="13.79" width="18.86" height="21.65"/><path class="cls-2" d="M33.18,14V11.48A2.41,2.41,0,0,0,30.72,9h-14a2.42,2.42,0,0,0-2.47,2.46V14Z"/><path class="cls-2" d="M14.29,35.31v3.28a2.42,2.42,0,0,0,2.47,2.46h14a2.41,2.41,0,0,0,2.46-2.46V35.31Z"/><path class="cls-1" d="M30.72,8.2h-14a3.3,3.3,0,0,0-3.29,3.28v6.58H3.12L5,16.17,3.86,15,0,18.88l3.86,3.86L5,21.59,3.12,19.7H17.58V18.06H15.11V14.77H32.36V34.48H15.11V23h5.42l-1.06,1.07,1.15,1.15,3-3-3-3-1.15,1.15,1.06,1.07H10.19V23h3.28V38.59a3.3,3.3,0,0,0,3.29,3.29h14A3.3,3.3,0,0,0,34,38.59V11.48A3.3,3.3,0,0,0,30.72,8.2Zm1.64,30.39a1.65,1.65,0,0,1-1.64,1.64h-14a1.65,1.65,0,0,1-1.65-1.64V36.13H32.36Zm0-25.46H15.11V11.48a1.65,1.65,0,0,1,1.65-1.64h14a1.65,1.65,0,0,1,1.64,1.64Z"/><rect class="cls-1" x="21.68" y="36.95" width="4.11" height="1.64"/><polygon class="cls-1" points="30.14 29.31 31.3 28.16 28.26 25.12 24.97 28.41 22.51 25.94 16.18 32.27 17.33 33.42 22.51 28.24 26.86 32.59 28.01 31.45 26.12 29.55 28.26 27.42 30.14 29.31"/></svg>